<svg id="Camada_1" data-name="Camada 1" xmlns="http://www.w3.org/2000/svg" viewBox="0 0 143.9 134.31"><defs><style>.cls-1{fill:none;stroke:#ad1111;stroke-miterlimit:10;stroke-width:2px;}.cls-2{fill:#ad1111;}</style></defs><rect class="cls-1" x="1" y="1" width="141.9" height="132.31" rx="42.26"/><path class="cls-2" d="M285.58,386.41c.05-.09.07-.11.07-.14a63.83,63.83,0,0,0-.21-7.33,14.28,14.28,0,0,0-14.1-12.19H249.58a4.49,4.49,0,0,1-.9-.05,1,1,0,0,1-.8-1.09,1,1,0,0,1,.93-.94,2.54,2.54,0,0,1,.39,0h22.23a16.38,16.38,0,0,1,16.12,14.19,65.06,65.06,0,0,1,.2,6.56c0,.32,0,.64,0,1,.81,0,1.56-.05,2.3,0a8,8,0,0,1,7.26,6.27,1.08,1.08,0,0,0,1,.94c8.55,2.05,13.9,7.36,16.1,15.86.2.77.37,1.56.56,2.33a.8.8,0,0,0,.08.17h1.85a5.12,5.12,0,0,1,0,10.24H256.6a5.12,5.12,0,0,1,0-10.24h1.2c.79,0,.64.13.86-.69a42.23,42.23,0,0,1,1.33-4.75,20.45,20.45,0,0,1,15.53-13,.57.57,0,0,0,.52-.5,8.05,8.05,0,0,1,6.19-6.44,13.11,13.11,0,0,1,2.19-.23C284.79,386.38,285.2,386.41,285.58,386.41Zm-25,25.57h52.12a1.37,1.37,0,0,0,0-.16,25.45,25.45,0,0,0-1.62-5.42c-3.38-7-9-10.79-16.74-11.06-4.87-.17-9.76,0-14.64,0a19.72,19.72,0,0,0-3.35.22,18.37,18.37,0,0,0-14.34,11.31A27.77,27.77,0,0,0,260.62,412Zm26.1,2.14H258.58c-.72,0-1.44,0-2.16,0a3,3,0,0,0-2.79,3.54,3.05,3.05,0,0,0,3.21,2.52H317a3,3,0,0,0-.33-6.06Zm8.55-20.93,0-.24a6.1,6.1,0,0,0-5.87-4.46c-1.76,0-3.52,0-5.28,0a6,6,0,0,0-5.53,3.49,11.63,11.63,0,0,0-.46,1.2Z" transform="translate(-212.94 -345.47)"/><path class="cls-2" d="M301.8,430.43c0,1.18,0,2.36,0,3.55a1,1,0,1,1-2.08,0v-7.09a1.06,1.06,0,0,1,1-1.18,1,1,0,0,1,1,1.18C301.81,428.06,301.8,429.25,301.8,430.43Z" transform="translate(-212.94 -345.47)"/><path class="cls-2" d="M264.32,430.45V434a1.09,1.09,0,0,1-1,1.2c-.64,0-1.06-.46-1.06-1.2q0-3.51,0-7c0-.76.4-1.26,1-1.25s1.07.48,1.07,1.25Z" transform="translate(-212.94 -345.47)"/><path class="cls-2" d="M309.1,430.42v-3.54c0-.72.42-1.19,1-1.18a1.07,1.07,0,0,1,1.05,1.18q0,3.57,0,7.14a1.06,1.06,0,0,1-1.05,1.13,1,1,0,0,1-1-1.13Z" transform="translate(-212.94 -345.47)"/><path class="cls-2" d="M283.06,430.45v3.46c0,.76-.4,1.23-1,1.24s-1.06-.48-1.06-1.27v-7a1.09,1.09,0,0,1,1-1.22,1.07,1.07,0,0,1,1.08,1.2Z" transform="translate(-212.94 -345.47)"/><path class="cls-2" d="M287.75,443.14c0,1.17,0,2.34,0,3.51,0,.76-.41,1.21-1.06,1.21s-1-.46-1-1.19v-7.16a1,1,0,0,1,.7-1,1,1,0,0,1,1.15.36,1.49,1.49,0,0,1,.22.81c0,1.17,0,2.33,0,3.5Z" transform="translate(-212.94 -345.47)"/><path class="cls-2" d="M283.06,455.86c0,1.17,0,2.34,0,3.5,0,.75-.41,1.22-1.05,1.21a1.05,1.05,0,0,1-1-1.18v-7.05c0-.75.41-1.21,1.06-1.2s1,.45,1,1.18v3.54Z" transform="translate(-212.94 -345.47)"/><path class="cls-2" d="M278.37,443.15c0,1.22,0,2.44,0,3.66a1,1,0,0,1-.69,1,.93.93,0,0,1-1.09-.27,1.47,1.47,0,0,1-.3-.83c0-2.38,0-4.77,0-7.15a1,1,0,0,1,1.05-1.13,1,1,0,0,1,1,1.13C278.38,440.75,278.37,442,278.37,443.15Z" transform="translate(-212.94 -345.47)"/><path class="cls-2" d="M304.41,443.16v-3.55a1,1,0,0,1,1-1.19c.65,0,1.05.45,1.05,1.2q0,3.53,0,7.05c0,.73-.38,1.18-1,1.18s-1.05-.44-1.06-1.2v-3.49Z" transform="translate(-212.94 -345.47)"/><path class="cls-2" d="M301.8,455.89c0,1.17,0,2.34,0,3.51,0,.74-.4,1.17-1,1.17s-1-.45-1-1.18v-7.06c0-.73.4-1.18,1-1.19s1.05.44,1.05,1.2Z" transform="translate(-212.94 -345.47)"/><path class="cls-2" d="M266.91,443.11v-3.46c0-.77.4-1.23,1-1.23s1.05.46,1.06,1.22q0,3.51,0,7c0,.75-.39,1.19-1,1.21s-1.06-.44-1.06-1.2C266.91,445.48,266.91,444.29,266.91,443.11Z" transform="translate(-212.94 -345.47)"/><path class="cls-2" d="M290.36,430.43c0-1.18,0-2.37,0-3.55a1,1,0,1,1,2.07,0c0,2.38,0,4.76,0,7.14a1,1,0,0,1-1,1.13,1,1,0,0,1-1-1.13C290.35,432.83,290.35,431.63,290.36,430.43Z" transform="translate(-212.94 -345.47)"/><path class="cls-2" d="M295,443.16c0-1.24,0-2.47,0-3.7a1,1,0,0,1,.7-1,.93.93,0,0,1,1.12.32,1.27,1.27,0,0,1,.25.7q0,3.64,0,7.29a1,1,0,0,1-1,1.07A1.05,1.05,0,0,1,295,446.8v-3.64Z" transform="translate(-212.94 -345.47)"/><path class="cls-2" d="M290.36,455.79c0-1.17,0-2.34,0-3.51a1,1,0,1,1,2.07,0q0,3.61,0,7.21a1,1,0,0,1-.71,1.07,1,1,0,0,1-1.15-.37,1.52,1.52,0,0,1-.21-.76C290.34,458.19,290.36,457,290.36,455.79Z" transform="translate(-212.94 -345.47)"/><path class="cls-2" d="M273.68,455.86v3.65a1,1,0,0,1-.68,1,.94.94,0,0,1-1.13-.3,1.32,1.32,0,0,1-.25-.75c0-2.41,0-4.83,0-7.24a1,1,0,1,1,2.06,0C273.68,453.43,273.68,454.65,273.68,455.86Z" transform="translate(-212.94 -345.47)"/><path class="cls-2" d="M273.68,430.46V434a1,1,0,1,1-2.07,0c0-2.38,0-4.77,0-7.15a1,1,0,0,1,.81-1.09,1,1,0,0,1,1.13.53,1.57,1.57,0,0,1,.12.65c0,1.18,0,2.37,0,3.55Z" transform="translate(-212.94 -345.47)"/></svg>