<svg id="Camada_1" data-name="Camada 1" xmlns="http://www.w3.org/2000/svg" viewBox="0 0 94.66 61.08"><defs><style>.cls-1{fill:#fff;}</style></defs><path class="cls-1" d="M454.72,282.38c-2.62,0-5.24,0-7.86,0a5.26,5.26,0,0,1-1.73-.25c-1.29-.42-1.93-1.39-2.06-3.11,0-.13,0-.26,0-.38V269q0-21.87,0-43.75a5.77,5.77,0,0,1,.52-2.4c.29-.62.91-1.45,2.88-1.5.56,0,1.12,0,1.68,0h43.39v-.06h42.67a3.15,3.15,0,0,1,3.24,2.18,4.65,4.65,0,0,1,.24,1.37q0,27,0,54a3.13,3.13,0,0,1-2.09,3.24,6.8,6.8,0,0,1-2,.25h-79Zm27.83-27.84a2.38,2.38,0,0,0-1.43.67l-11.51,8.49-18.09,13.38c-.26.2-.52.4-.77.61l-.91.73.59,1.53h79.45l.62-1.48-1-.75c-.26-.21-.52-.42-.79-.61l-7.57-5.5-23.06-16.79a1.92,1.92,0,0,0-1.11-.41,1.85,1.85,0,0,0-1.16.46c-1.11.89-2.24,1.76-3.36,2.63l-1.79,1.38a1.75,1.75,0,0,1-1.07.43,1.65,1.65,0,0,1-1-.39c-1.55-1.19-3.09-2.41-4.61-3.64A2.38,2.38,0,0,0,482.55,254.54Zm50.66-28.61c-.21.14-.39.25-.55.38l-2.84,2.2-10.44,8.12-11.6,9-7.09,5.5a1.56,1.56,0,0,0-.69,1.23,1.61,1.61,0,0,0,.75,1.23l22.7,16.5,8,5.82c.42.31.85.61,1.32.93l2.3,1.63V224.71Zm-87.52.83v49.66l1.19.89,33.61-24.83-33.66-26.72Zm5.92-2.43-.3,1.52.43.46a2.81,2.81,0,0,0,.35.34l17,13.49L487.73,255c.78.62,1.25,1,1.92,1h0c.67,0,1.13-.36,1.89-.95l18.1-14.07,18.63-14.46c.14-.11.28-.24.42-.37l.61-.57-.5-1.5Z" transform="translate(-443.06 -221.3)"/></svg>