<svg id="Camada_1" data-name="Camada 1" xmlns="http://www.w3.org/2000/svg" viewBox="0 0 143.9 134.31"><defs><style>.cls-1{fill:none;stroke:#ad1111;stroke-miterlimit:10;stroke-width:2px;}.cls-2{fill:#ad1111;}</style></defs><rect class="cls-1" x="1" y="1" width="141.9" height="132.31" rx="42.26"/><path class="cls-2" d="M359.65,404.51a4.27,4.27,0,0,1-1.14-.2c.51-11.12,6-19.07,16.79-24.3l.86-.41-.58-.75c-8.39-11-8.83-20.65-1.24-27.22a15.79,15.79,0,0,1,10.33-3.83,16,16,0,0,1,11.81,5.2c6.66,7.28,5.68,16.62-2.68,25.63l-.71.77.94.46c10.72,5.21,16.31,13.21,17.06,24.43a4.56,4.56,0,0,1-1.2.2c-.45,0-1.08,0-1.38-2.16-1.65-11.93-11.42-21.13-22.72-21.41h-.67c-11.92,0-21.36,7.9-24.06,20.11a10.33,10.33,0,0,0-.18,1.26C360.71,404,360.53,404.51,359.65,404.51Zm25-54.31c-7.27.07-13.54,6.41-13.7,13.85a14.18,14.18,0,0,0,4,10.13,13.46,13.46,0,0,0,9.61,4.14h0a13.8,13.8,0,0,0,13.86-14,14.3,14.3,0,0,0-4.17-10.09,13.31,13.31,0,0,0-9.49-4.05Z" transform="translate(-313.57 -303.47)"/><path class="cls-2" d="M338.16,392.13a1.78,1.78,0,0,1-.69-1.22c.37-1.09.72-2.28,1.07-3.44,1-3.35,2-6.82,3.91-9.5s4.64-5,7.5-7.35c1.29-1.06,2.62-2.17,3.93-3.36l.62-.57-.61-.57c-5.56-5.15-7.48-11.27-5.71-18.19a15.3,15.3,0,0,1,7.31-9.62,13.16,13.16,0,0,1,6.67-1.58c5,0,10.37,2,12.57,4.61a3.36,3.36,0,0,1,.93,2.36h-.08c-.75,0-2.14-1.14-2.67-1.58a15.63,15.63,0,0,0-9.94-3.84c-6.17,0-11.36,4.32-13.22,11-2,7.16,2.49,14.67,10.18,17.09.43.13.9.23,1.35.33,1.15.24,2.24.47,2.61,1.22a.63.63,0,0,1-.16.41,3.47,3.47,0,0,1-2.22.61c-.42,0-.86.06-1.28.13-11.13,2-18.11,8.72-20.73,19.93-.05.19-.08.38-.12.57a4.41,4.41,0,0,1-.39,1.31c-.06.09-.11.2-.18.31S338.35,392.05,338.16,392.13Z" transform="translate(-313.57 -303.47)"/><path class="cls-2" d="M432.86,392.13c-.19-.08-.51-.66-.65-.91s-.12-.22-.18-.31a4.41,4.41,0,0,1-.39-1.31c0-.19-.07-.38-.12-.57-2.62-11.21-9.6-17.92-20.73-19.93-.42-.07-.86-.1-1.28-.13a3.47,3.47,0,0,1-2.22-.61.62.62,0,0,1-.15-.42c.36-.74,1.45-1,2.6-1.21.45-.1.92-.2,1.35-.33,7.69-2.42,12.17-9.93,10.18-17.09-1.86-6.71-7-11-13.22-11a15.63,15.63,0,0,0-9.94,3.84c-.53.44-1.91,1.58-2.67,1.58h-.08a3.4,3.4,0,0,1,.93-2.36c2.2-2.63,7.6-4.61,12.57-4.61a13.23,13.23,0,0,1,6.68,1.58,15.28,15.28,0,0,1,7.3,9.62c1.77,6.92-.15,13-5.7,18.19l-.62.57.62.57c1.31,1.19,2.64,2.3,3.94,3.36,2.85,2.37,5.55,4.6,7.49,7.35s2.92,6.15,3.92,9.5c.34,1.16.69,2.35,1.08,3.5A1.87,1.87,0,0,1,432.86,392.13Z" transform="translate(-313.57 -303.47)"/></svg>