<svg id="Camada_1" data-name="Camada 1" xmlns="http://www.w3.org/2000/svg" viewBox="0 0 143.9 134.31"><defs><style>.cls-1{fill:none;stroke:#ad1111;stroke-miterlimit:10;stroke-width:2px;}.cls-2{fill:#ad1111;}</style></defs><rect class="cls-1" x="1" y="1" width="141.9" height="132.31" rx="42.26"/><path class="cls-2" d="M361.86,473.58h-.33a4.1,4.1,0,0,0-.5,0H266.72a5.78,5.78,0,0,1-2.24-.2,7.16,7.16,0,0,1-.19-2.43v-9.64q0-26.54,0-53.07c0-.25,0-.53,0-.81a3,3,0,0,1,.11-1.53.84.84,0,0,1,.6-.16h.09a.9.9,0,0,1,.57.18,2.92,2.92,0,0,1,.11,1.51c0,.28,0,.55,0,.8q0,20.9,0,41.8v14.16h31V408.45c0-.2,0-.42,0-.63a2.11,2.11,0,0,1,0-.76c.06-.13.11-.27.17-.41s.35-.92.52-1,.38.39.75,1.16l.13.26a2.77,2.77,0,0,1,0,.88c0,.23,0,.46,0,.68v55.62h31V408c0-.2,0-.42,0-.64a2.74,2.74,0,0,1,0-.94,1.67,1.67,0,0,1,.75-.72,1.5,1.5,0,0,1,.48.53,5.1,5.1,0,0,1,.11,1.56c0,.2,0,.39,0,.58v55.86h31.1v-55.9c0-.22,0-.44,0-.67a2.84,2.84,0,0,1,0-.95,2.73,2.73,0,0,1,.67-.92,1.43,1.43,0,0,1,.73,1.58c0,.17,0,.34,0,.51v5.88q0,25.1,0,50.17c0,1.08,0,2.16,0,3.23,0,1.56-.07,3.17,0,4.76a2.18,2.18,0,0,1-.28,1.41A1,1,0,0,1,361.86,473.58Zm-96-1.71h95.7v-5.81h-95.7Z" transform="translate(-241.69 -372.47)"/><path class="cls-2" d="M313,456.73c-1.06,0-2.11,0-3.17,0a6.44,6.44,0,0,1-6.15-6.64c0-3.33,0-6.73,0-10v-8.34c0-3.25,0-6.51,0-9.76,0-4.05,2.39-6.79,6.05-7,1.39-.07,2.79-.11,4.15-.11s2.82,0,4.18.12c3.42.19,5.83,2.87,5.86,6.51.09,10.25.09,19.59,0,28.55,0,4-2.65,6.65-6.49,6.67h-1.06Zm.68-40.37-3.09,0c-3.49.05-5.59,2.24-5.61,5.85-.07,9-.06,18.18,0,27.26,0,3.48,2.11,5.71,5.44,5.82,1.12,0,2.3.06,3.51.06,1,0,2.07,0,3.1,0,3.56-.08,5.54-2.25,5.57-6.11,0-3.1,0-6.25,0-9.3,0-1.06,0-2.12,0-3.18l0-.82c0-1.35,0-2.7,0-4.05,0-3.1,0-6.31,0-9.48-.05-3.84-2.05-6-5.64-6Z" transform="translate(-241.69 -372.47)"/><path class="cls-2" d="M281.44,456.72h-3.6c-4.28,0-6.76-2.68-6.8-7.3-.05-5.67,0-11.43,0-17,0-2.23,0-4.45,0-6.68,0-.37,0-.74,0-1.12,0-1,0-2,0-3,.23-3.88,2.55-6.41,6.05-6.61,1.29-.07,2.61-.11,3.94-.11s2.92,0,4.4.13c3.37.19,5.79,2.87,5.87,6.5.09,3.33.07,6.73.05,10,0,1.46,0,2.91,0,4.36v.85h0v3.35c0,3.12,0,6.35,0,9.52-.06,4.46-2.58,7.13-6.74,7.14Zm.06-40.36-3.49,0c-3.59,0-5.57,2.18-5.6,6,0,3.32,0,6.65,0,10v7.37c0,3.15,0,6.31,0,9.46,0,3.7,2,6,5.37,6.09,1.13,0,2.29.06,3.46.06s2.24,0,3.36-.05a5.31,5.31,0,0,0,5.39-5.65c.09-9.23.09-18.55,0-27.7,0-3.39-2.1-5.53-5.4-5.59C283.57,416.37,282.54,416.36,281.5,416.36Z" transform="translate(-241.69 -372.47)"/><path class="cls-2" d="M312.66,447.81c-.87-.14-1.69-.29-2.49-.48l-.14,0c-.4-.1-.9-.22-1-.41a1.07,1.07,0,0,1,0-.63c.29-1.36.46-1.59,1.18-1.59l.34,0a27.83,27.83,0,0,0,3.12.17c1.11,0,2.27-.06,3.57-.17h.21c.56,0,.63.09.89,1.22a1.49,1.49,0,0,1,0,1,1,1,0,0,1-.62.33c-1,.22-2,.41-2.89.59l-1.08.21Z" transform="translate(-241.69 -372.47)"/><path class="cls-2" d="M310.29,426.23c-.44,0-.87,0-1.06-1.44a1.37,1.37,0,0,1,.1-.91c.23-.3.93-.33,1.24-.35.64,0,1.28,0,1.92,0,1.53,0,3.2.07,5.23.23a.77.77,0,0,1,.58.23,1.83,1.83,0,0,1,.08,1.18c-.18,1.1-.43,1.1-.8,1.1l-.33,0a10,10,0,0,0-1.43-.09c-.36,0-.73,0-1.09,0h-.47l-.58,0-.79,0-.87,0a5.42,5.42,0,0,0-1.12.1,3.57,3.57,0,0,1-.6.06Z" transform="translate(-241.69 -372.47)"/><path class="cls-2" d="M281.1,447.26c-1.31,0-2.7,0-4.12-.09a.62.62,0,0,1-.45-.15,1.57,1.57,0,0,1,0-1.07c.26-1.22.36-1.27.74-1.27l.31,0a16.48,16.48,0,0,0,2.51.18c.35,0,.7,0,1.05,0l.8,0v-.17h.17l1,0a9.55,9.55,0,0,0,1.26-.07l.43,0c.43,0,.72,0,.95,1.13.17.84.05,1.1,0,1.16a.79.79,0,0,1-.53.17C283.88,447.22,282.51,447.26,281.1,447.26Z" transform="translate(-241.69 -372.47)"/><path class="cls-2" d="M277.6,426.24c-.45,0-.74-.09-1-1.45a1.19,1.19,0,0,1,.07-.84,1.42,1.42,0,0,1,1.07-.37c1-.06,2.06-.09,3.1-.09,1.34,0,2.71.05,4.06.15a1.22,1.22,0,0,1,.9.35,1.18,1.18,0,0,1,0,.79c-.31,1.34-.43,1.46-.9,1.46a2.37,2.37,0,0,1-.42-.05,6.93,6.93,0,0,0-1.36-.11q-.52,0-1,0l-.53,0h-.46c-.28,0-.57,0-.85,0l-.94,0a6.24,6.24,0,0,0-1.21.11A2.5,2.5,0,0,1,277.6,426.24Z" transform="translate(-241.69 -372.47)"/><path class="cls-2" d="M343.53,443.92a7.64,7.64,0,0,1-.92,0h-.07a1.8,1.8,0,0,1,0-.22,4.42,4.42,0,0,1,0-.49c0-.15,0-.24,0-.28,0-.9-.05-1.75-.06-2.57s0-1.69,0-2.56c0-.67,0-1.39,0-2.18s0-1.55,0-2.3,0-1.45,0-2.1,0-1.1,0-1.47a1.21,1.21,0,0,1,.43-.13,4.28,4.28,0,0,1,.81-.07h.83c.91,0,1.79.05,2.61.13a5,5,0,0,1,1.95.59,3.13,3.13,0,0,1,1.22,1.32,5.62,5.62,0,0,1,.48,2.58,6.81,6.81,0,0,1-.39,2.47,3.83,3.83,0,0,1-1,1.53,4.1,4.1,0,0,1-1.67.87,8.68,8.68,0,0,1-2.37.3h-.77v1.94c0,.13,0,.36,0,.68s0,.6,0,.92,0,.59-.08.85c0,0,0,.07,0,.09a1.29,1.29,0,0,1-.26.08l-.35,0A1.24,1.24,0,0,1,343.53,443.92Zm2.05-12.65-.29,0-.35.09a1,1,0,0,0-.63,1q0,.9,0,1.74l0,1.64,0,1.91.68.08.45,0,.46,0a2.71,2.71,0,0,0,2-.85,3.52,3.52,0,0,0,.87-2.58,3.35,3.35,0,0,0-.26-1.35,2.88,2.88,0,0,0-.7-1,2.67,2.67,0,0,0-1-.57,3.54,3.54,0,0,0-1.08-.17h-.23Z" transform="translate(-241.69 -372.47)"/></svg>