<svg id="Camada_1" data-name="Camada 1" xmlns="http://www.w3.org/2000/svg" viewBox="0 0 529.14 457.03"><defs><style>.cls-1{fill:#fff;}</style></defs><path class="cls-1" d="M-298.14,711.56c0-8.8,0-16.76,0-24.72q.44-108,.81-216a10.54,10.54,0,0,1,3.55-8.25c2.57-2.49,4.54-5.59,7.18-8.94,6.82,14.33,6.63,30.47,9.46,46.22V466.36l2.16-.28c.86,3.52,2.17,7,2.47,10.58.51,6.3.41,12.65.56,19,.07,3.36,1.66,4.46,5.23,3.17V471.92h5c.64,6.64,1.26,13.12,1.88,19.6l1.25,0,1-9.76,1.45-.29c.88,4.35,2.45,8.68,2.52,13,.52,33,.48,66,1.16,99,.39,18.62,2.47,37.22,2.6,55.84.25,35.66-.35,71.32-.61,107,0,.82-.08,1.64-.21,3.86H-733c-1.5-140.69-3-282.57-4.52-424.92H-577l-6,4.64c3,.6,5,1.13,6.94,1.35,15.38,1.73,30.78,3.23,46.13,5.2,3.72.48,8.07,1.27,9.53,7.17l-58.16,2.26c15.8,3.42,32.48,1.29,48.58,8.17l-8.43,5.18-.14,1.36c2,.52,4,1.39,6.11,1.5,4.32.23,8.68-.19,13,.18,2.06.18,4,1.56,6,2.4-1.17,1.88-2,4.25-3.59,5.53a26.47,26.47,0,0,1-16.69,5.57q-72,.29-144,.82c-2.11,0-4.22,0-6.85,0,.52,108.8,1,216.87,1.56,325Z" transform="translate(737.52 -303.09)"/><path class="cls-1" d="M-532.61,657.83c-5.66-15-11.45-28.94-16.29-43.24-10.92-32.3-31.59-58-55.09-81.62-14.42-14.5-30.07-27.79-45.14-41.66-2.49-2.29-4.83-4.74-7.24-7.11l1.1-1.74,18.82,8.17-5.55-7.46c10.36.45,17.78,6.26,25.67,10.84l1-1.11-9-7c3.54-1.32,3.54-1.32,15.58,5.41l3.3-3.27-9.42-8.53c1-1.23,1.89-2.36,3.28-4.11,3.79,3.26,7.51,6.23,11,9.5,6.42,6.06,12.62,12.36,19.07,18.38.87.82,2.68.63,4,.9l.8-2-28.44-26.35c2.56-2.3,4.65-1.34,6.9.87,9.61,9.47,19.33,18.82,29,28.21a13,13,0,0,0,5.54,3.6q-3.37-3.56-6.74-7.13c20,13.06,30.8,34.2,46.15,51.64,8.11-10.57,15.9-21.29,24.28-31.52,33.86-41.34,66.52-83.71,105.06-121A676.37,676.37,0,0,1-274,307c1.67-1,3.39-1.93,5.51-3.13.12,2,.2,3.4.33,5.56,1.74-.35,3.28-.52,4.72-1,4.92-1.55,9.75-3.38,14.72-4.72a17.58,17.58,0,0,1,7.39-.38,6.82,6.82,0,0,1,4,3.2c.37.66-.88,2.64-1.82,3.59-2.88,2.93-6,5.66-8.52,9.44l11.37-1.66c.46.94.73,1.23.72,1.51-.2,8.26-.2,8.25,7.35,4.4l18.73-9.5c.42,5.37.77,9.77,1.1,13.91C-349.12,405.81-450.73,521.5-532.61,657.83Z" transform="translate(737.52 -303.09)"/></svg>