<svg id="Camada_1" data-name="Camada 1" xmlns="http://www.w3.org/2000/svg" viewBox="0 0 78.15 78.15"><defs><style>.cls-1{fill:#fff;}</style></defs><path class="cls-1" d="M430.66,413.67c-3.18,0-6.35,0-9.53-.05a15.47,15.47,0,0,1-10.64-4.5,16.39,16.39,0,0,1-4.75-8.3,20.58,20.58,0,0,1-.4-4.8q0-6.48,0-13V359.69c0-.85,0-1.7,0-2.54,0-1.89,0-3.84,0-5.75a15.79,15.79,0,0,1,3.6-9.68,16.17,16.17,0,0,1,12.77-6.17c3.92,0,7.84,0,11.76,0h23.6l9.67,0a16.34,16.34,0,0,1,10.9,3.94,15.68,15.68,0,0,1,5.61,10.15,38.7,38.7,0,0,1,.19,4.83v1q0,6.76,0,13.54v24.64c0,1.33,0,2.65,0,4a16.49,16.49,0,0,1-12.81,15.61,17.22,17.22,0,0,1-3.65.4c-2.63,0-5.26,0-7.88,0H430.66Zm12.68-3.33h22a20.63,20.63,0,0,0,4.47-.34,13.24,13.24,0,0,0,10.31-12.82v-25.8q0-9.21,0-18.43a15.21,15.21,0,0,0-1-5.87,13.09,13.09,0,0,0-11.86-8.2c-3.12,0-6.25-.06-9.37-.06h-6.36l-6.35,0H423.17a18.2,18.2,0,0,0-4.58.43,13.2,13.2,0,0,0-9.92,12.79v25.85q0,8.94,0,17.86a16.5,16.5,0,0,0,.77,5.74A13.27,13.27,0,0,0,422,410.34Z" transform="translate(-405.33 -335.52)"/><path class="cls-1" d="M444.4,395A20.38,20.38,0,0,1,424,374.57a20.41,20.41,0,0,1,20.42-20.35A20.37,20.37,0,0,1,464.79,375a20.46,20.46,0,0,1-20.36,20Zm-.08-37.39a17,17,0,0,0-16.93,17,17,17,0,1,0,17.13-17Z" transform="translate(-405.33 -335.52)"/><path class="cls-1" d="M465.83,357.58a4.34,4.34,0,0,1-4.37-4.4,4.26,4.26,0,0,1,4.4-4.29,4.35,4.35,0,0,1,3.05,1.31,4.21,4.21,0,0,1,1.24,3A4.39,4.39,0,0,1,465.83,357.58Z" transform="translate(-405.33 -335.52)"/></svg>