<svg id="Camada_1" data-name="Camada 1" xmlns="http://www.w3.org/2000/svg" viewBox="0 0 78.15 78.15"><defs><style>.cls-1{fill:#bf0c0c;}</style></defs><path class="cls-1" d="M199.07,294.05c-3.18,0-6.35,0-9.53-.05a15.47,15.47,0,0,1-10.64-4.5,16.43,16.43,0,0,1-4.75-8.3,20.63,20.63,0,0,1-.4-4.8q0-6.48,0-13V240.07c0-.85,0-1.7,0-2.55,0-1.88,0-3.83,0-5.74a15.79,15.79,0,0,1,3.6-9.68,16.19,16.19,0,0,1,9.22-5.79,16.79,16.79,0,0,1,3.55-.39l11.76,0h33.27a16.25,16.25,0,0,1,10.89,3.94A15.65,15.65,0,0,1,251.69,230a38.62,38.62,0,0,1,.19,4.82v1q0,6.78,0,13.54V274c0,1.32,0,2.65,0,4a16.49,16.49,0,0,1-12.81,15.62,17.9,17.9,0,0,1-3.65.4c-2.63,0-5.26,0-7.88,0H212.8l-6.87,0Zm12.68-3.33h22a20.63,20.63,0,0,0,4.47-.34,13.25,13.25,0,0,0,10.31-12.83V251.76q0-9.22,0-18.43a15.17,15.17,0,0,0-1-5.87,13.08,13.08,0,0,0-11.86-8.21c-3.12,0-6.25-.05-9.37-.05H191.58a17.74,17.74,0,0,0-4.58.43,13.2,13.2,0,0,0-9.92,12.79v25.85q0,8.93,0,17.86a16.56,16.56,0,0,0,.77,5.74,13.26,13.26,0,0,0,12.61,8.82h21.3Z" transform="translate(-173.74 -215.9)"/><path class="cls-1" d="M212.81,275.34a20.37,20.37,0,1,1,20.39-20,20.45,20.45,0,0,1-20.36,20ZM212.73,238a16.75,16.75,0,0,0-12,5,17,17,0,1,0,12.18-5Z" transform="translate(-173.74 -215.9)"/><path class="cls-1" d="M234.24,238a4.34,4.34,0,0,1-4.37-4.4,4.26,4.26,0,0,1,4.4-4.29,4.35,4.35,0,0,1,3,1.31,4.25,4.25,0,0,1,1.24,3A4.4,4.4,0,0,1,234.24,238Z" transform="translate(-173.74 -215.9)"/></svg>