<svg id="Camada_1" data-name="Camada 1" xmlns="http://www.w3.org/2000/svg" viewBox="0 0 796.85 96.47"><path d="M854.75,392.35c0-11.08-.09-22.16,0-33.24.12-10.44,4.47-14.82,15-14.92q23.63-.21,47.25,0c9.81.11,14.52,4.63,14.62,14.5q.35,34.56,0,69.12c-.07,7.83-4.14,12.55-12.5,12.56-17.2,0-34.41.19-51.62-.06-9-.13-12.68-4.09-12.79-13C854.64,415.69,854.75,404,854.75,392.35ZM904,419c0-13,0-24.82,0-36.68,0-18.29,0-18.3-18.13-17.24a9.46,9.46,0,0,0-2.5.91v53Z" transform="translate(-135 -344)"/><path d="M740.61,440.38v-96c22.39,0,44.18-.28,65.95.18,6.29.14,10,5.17,10,11.35q.43,36.75.17,73.51c0,7-4.53,10.77-11.28,10.84C784.21,440.51,762.94,440.38,740.61,440.38Zm48.22-21.46V365.64H766.54v53.28Z" transform="translate(-135 -344)"/><path d="M413.26,440H338.5V344.92h75c-1.94,5.71-3.26,11.39-5.89,16.37-1.05,2-5,3.41-7.64,3.5-11.59.37-23.19.16-35.5.16V419h22.6V403.8l-13-1.13V383.32h39.19Z" transform="translate(-135 -344)"/><path d="M305.39,439.84V365.4H282.3v74.41H256.38V345h75v94.81Z" transform="translate(-135 -344)"/><path d="M708.48,419.2V344.87h25.59V439.8H659.36V345h25V419.2Z" transform="translate(-135 -344)"/><path d="M573.16,344.16c-2.11,6.35-3.3,11.81-5.79,16.59-1.09,2.08-4.81,3.83-7.41,3.92-11.55.42-23.12.18-35.17.18V382.3c11.49,0,22.48-.11,33.46,0,11.5.15,15.15,3.68,15.44,15.24.25,9.9,0,19.81.07,29.72,0,7.22-3.46,12.38-10.59,12.54-21.49.48-43,.17-65.95.17,2.12-6,3.57-11.85,6.34-17,1.07-2,5.12-3.19,7.85-3.29,11-.36,22-.15,32.81-.15a16.85,16.85,0,0,0,1.2-3.26c1.17-13.89,1.16-13.88-12.91-13.91-7.58,0-15.16.17-22.73-.14-8.77-.36-12.9-4.43-13.13-13-.27-9.9-.35-19.82-.08-29.72.29-11,4.71-15.28,15.6-15.34C532.17,344.07,552.17,344.16,573.16,344.16Z" transform="translate(-135 -344)"/><path d="M578.68,344.68h74.91v19.65h-24.5v75.55H603V364.42h-24.3Z" transform="translate(-135 -344)"/><path d="M848.51,440H823.74V344.89h24.77Z" transform="translate(-135 -344)"/><path d="M249.39,440.09H225V344.8h24.41Z" transform="translate(-135 -344)"/><polygon points="0 0 27.11 0 27 27 45.11 0 76.48 0 41 49 81 96 49 96 27 70 27 96 0 96 0 0"/></svg>