<svg id="Camada_1" data-name="Camada 1" xmlns="http://www.w3.org/2000/svg" viewBox="0 0 282.14 74.22"><defs><style>.cls-1{fill:#fff;}</style></defs><path class="cls-1" d="M661,540.41c0-3,0-5.92,0-8.88,0-2.79,1.19-3.95,4-4q6.32-.06,12.62,0c2.62,0,3.87,1.23,3.9,3.87q.09,9.23,0,18.45c0,2.09-1.1,3.35-3.34,3.35-4.59,0-9.18.06-13.78,0-2.4,0-3.38-1.09-3.41-3.47C661,546.64,661,543.52,661,540.41Zm13.15,7.11v-9.79c0-4.88,0-4.89-4.84-4.6a2.34,2.34,0,0,0-.67.24v14.15Z" transform="translate(-399.46 -503.26)"/><path class="cls-1" d="M630.56,553.23V527.6c6,0,11.79-.08,17.61,0a2.77,2.77,0,0,1,2.67,3q.1,9.81,0,19.62a2.73,2.73,0,0,1-3,2.89C642.2,553.26,636.52,553.23,630.56,553.23Zm12.87-5.73V533.27h-5.95V547.5Z" transform="translate(-399.46 -503.26)"/><path class="cls-1" d="M543.17,553.13H523.22V527.74h20a29.21,29.21,0,0,1-1.58,4.37,2.72,2.72,0,0,1-2,.94c-3.1.1-6.2,0-9.48,0v14.43h6v-4.06l-3.47-.3V538h10.46Z" transform="translate(-399.46 -503.26)"/><path class="cls-1" d="M514.38,553.08V533.21h-6.17v19.86h-6.92V527.76h20v25.31Z" transform="translate(-399.46 -503.26)"/><path class="cls-1" d="M622,547.57V527.73h6.83v25.34H608.87V527.76h6.67v19.81Z" transform="translate(-399.46 -503.26)"/><path class="cls-1" d="M585.86,527.54a30.22,30.22,0,0,1-1.55,4.43,2.69,2.69,0,0,1-2,1c-3.09.11-6.18,0-9.39,0v4.66c3.06,0,6,0,8.93,0s4,1,4.12,4.07c.07,2.64,0,5.29,0,7.93,0,1.93-.92,3.31-2.83,3.35-5.73.13-11.48,0-17.6,0a31.45,31.45,0,0,1,1.69-4.54,2.82,2.82,0,0,1,2.09-.88c2.94-.1,5.88,0,8.76,0a4,4,0,0,0,.32-.87c.32-3.71.31-3.7-3.44-3.71-2,0-4,0-6.07,0-2.34-.1-3.44-1.18-3.51-3.47-.07-2.64-.09-5.29,0-7.93.08-2.94,1.26-4.08,4.17-4.1C574.92,527.52,580.26,527.54,585.86,527.54Z" transform="translate(-399.46 -503.26)"/><path class="cls-1" d="M587.33,527.68h20v5.25h-6.54v20.16h-7V533h-6.49Z" transform="translate(-399.46 -503.26)"/><path class="cls-1" d="M659.36,553.13h-6.61V527.74h6.61Z" transform="translate(-399.46 -503.26)"/><path class="cls-1" d="M499.43,553.15h-6.51V527.71h6.51Z" transform="translate(-399.46 -503.26)"/><polygon class="cls-1" points="69.43 24.24 76.67 24.24 76.64 31.45 81.48 24.24 89.85 24.24 80.38 37.32 91.06 49.87 82.51 49.87 76.64 42.92 76.64 49.87 69.43 49.87 69.43 24.24"/><polygon class="cls-1" points="35.16 13.49 31.61 9.51 23.74 0 16.4 9.5 16.4 9.51 12.85 13.49 0.22 3.21 0.13 3.17 1.7 20.08 24.26 28.55 46.3 20.08 47.88 3.17 47.8 3.2 35.16 13.49"/><polygon class="cls-1" points="47.8 2.14 31.61 8.45 35.16 12.44 47.8 2.14"/><polygon class="cls-1" points="16.4 8.45 16.4 8.44 16.39 8.45 0.22 2.15 12.85 12.44 16.4 8.45"/><path class="cls-1" d="M401.4,527.65l-1.82,22.54S398.29,557.76,404,563c7.26,5.71,8.82,6.75,8.82,6.75V545.82s-5-2.39-6-7.27a10.58,10.58,0,0,1-.2-4.67L418,538v35.09l5.71,3.84V535.45Z" transform="translate(-399.46 -503.26)"/><path class="cls-1" d="M440.33,562.43,436.7,565l-3.11,2.08-1.56,1V545.82s5-2.39,6-7.27a10.58,10.58,0,0,0,.2-4.67L426.84,538v39.45l13.92-9.5s5.81-3.47,6.84-10.22C446,558.28,440.33,562.43,440.33,562.43Z" transform="translate(-399.46 -503.26)"/></svg>