<svg id="Camada_1" data-name="Camada 1" xmlns="http://www.w3.org/2000/svg" viewBox="0 0 303.54 468"><defs><style>.cls-1{fill:#fff;}</style></defs><polygon class="cls-1" points="221.72 85.09 199.32 59.98 149.69 0 103.44 59.88 103.4 59.98 81 85.09 1.38 20.22 0.8 19.99 10.72 126.63 153 180 291.96 126.63 301.89 19.99 301.37 20.2 221.72 85.09"/><polygon class="cls-1" points="301.37 16.92 199.32 56.71 221.72 81.82 301.37 16.92"/><polygon class="cls-1" points="103.4 56.71 103.44 56.6 103.36 56.71 1.38 16.95 81 81.82 103.4 56.71"/><path class="cls-1" d="M416.52,405.82,405.05,547.89s-8.17,47.75,27.83,80.47c45.82,36,55.64,42.55,55.64,42.55V520.36s-31.32-15.05-38-45.81c-4.17-19.24-1.29-29.46-1.29-29.46l72,26.18v221.2l36,24.26V455Z" transform="translate(-404.25 -252)"/><path class="cls-1" d="M662,625.09l-22.91,16.36-19.63,13.1-9.82,6.54V520.36s31.32-15.05,38-45.81c4.16-19.24,1.29-29.46,1.29-29.46l-72,26.18V720l87.75-59.94s36.62-21.88,43.16-64.42C698,598.91,662,625.09,662,625.09Z" transform="translate(-404.25 -252)"/></svg>