<svg id="Camada_1" data-name="Camada 1" xmlns="http://www.w3.org/2000/svg" viewBox="0 0 143.9 134.31"><defs><style>.cls-1{fill:none;stroke:#ad1111;stroke-miterlimit:10;stroke-width:2px;}.cls-2{fill:#ad1111;}</style></defs><rect class="cls-1" x="1" y="1" width="141.9" height="132.31" rx="42.26"/><path class="cls-2" d="M394.17,573.19a1.83,1.83,0,0,1-1.32-.41,1.8,1.8,0,0,1-.41-1.31c0-16,0-32.22,0-47.93V510.07c0-1.59,0-3.22,0-4.84a1.7,1.7,0,0,0-.46-1.08c-1.64-1.68-3.44-3.47-5.48-5.49a1.66,1.66,0,0,1-.53-1.27c0-2.86,0-5.87,0-9.21a1.28,1.28,0,0,1,.75-1.34,1.14,1.14,0,0,1,.46-.11,1.51,1.51,0,0,1,1,.54l2.66,2.65,21.46,21.48a1.23,1.23,0,0,0,.87.42,1.67,1.67,0,0,0,.54-.11,12.16,12.16,0,0,1,8.38,0,1.49,1.49,0,0,0,.47.09,1.13,1.13,0,0,0,.81-.38c2.11-2.13,4.26-4.28,6.34-6.36l1.62-1.62a1.62,1.62,0,0,1,1.08-.58,1.56,1.56,0,0,1,1.06.57l4.46,4.46a1.26,1.26,0,0,1,0,2.06l-.64.64c-2.41,2.41-4.91,4.91-7.38,7.36a1.09,1.09,0,0,0-.29,1.28,12.1,12.1,0,0,1,0,8.47,1,1,0,0,0,.22,1.2l10.64,10.62,2.75,2.75a.89.89,0,0,0,.14.13l.1.08.29.26,1.29-1.3c.8-.81,1.6-1.6,2.4-2.4a1.68,1.68,0,0,1,1.12-.63,1.74,1.74,0,0,1,1.13.63l6.21,6.22.08.09a3.47,3.47,0,0,0,.56.5l.37.26.23-.39.11-.22a1.37,1.37,0,0,1,.17-.28c5.17-5.18,9.88-9.9,14.4-14.4a4.56,4.56,0,0,1,3.3-1.44,5.61,5.61,0,0,1,1.06.11,4.27,4.27,0,0,1,3.43,3.05,4.49,4.49,0,0,1-1,4.53c-.12.14-.26.27-.4.42l-.21.22-.27.28.26.29a1.42,1.42,0,0,1,.12.13l.25.27c.48.47.95.94,1.42,1.42l1.73,1.72a1.25,1.25,0,0,1,0,2l-15.94,15.93a2.1,2.1,0,0,1-.27.2l-.18.12-.3.21.41.73h7.55A6,6,0,0,1,474.17,573a6.17,6.17,0,0,1-1.44.16H407l-12.77,0Zm77-2.43H472c.37,0,.8,0,1.24,0a3.39,3.39,0,0,0,2.81-2,3.64,3.64,0,0,0-3.25-5.3h-9.41l-.23,0-.09,0-.35,0v7.21h8.42Zm-76.27,0h58.92v-4H400.3a1.22,1.22,0,0,1-1.38-1.39c0-1,0-2,0-2.92V559.8l-.54.18a4.75,4.75,0,0,1-1.49.25,4.23,4.23,0,0,1-1.43-.25l-.55-.19Zm58.68-8.4.29.29.52.52c.4.41.83.83,1.27,1.24a1.8,1.8,0,0,1,.62,1.51c0,.67,0,1.35,0,2,0,.28,0,.56,0,.85v2h4l.06-.35s0,0,0-.07a1.46,1.46,0,0,0,0-.22v-6.87a1,1,0,0,0-.23-.67l-2.45-2.46-.91-.9Zm-52.22,1.91H452l-.65-.69-.14-.16-.23-.25-4.62-4.61c-7.53-7.53-15.32-15.32-23-23a1.14,1.14,0,0,0-.82-.38,1.65,1.65,0,0,0-.49.09,14.54,14.54,0,0,1-4.51.77A12.54,12.54,0,0,1,406,519.93a2.18,2.18,0,0,0-.68-2.56c-.76-.67-1.46-1.39-2.21-2.16l-1-1-.71-.71Zm48-11.47a2.21,2.21,0,0,0-1.65,3.69c.4.44.83.86,1.24,1.26l.56.56,2.22,2.23,3.17-3.15-1.12-1.12-2.62-2.6-.05-.06-.31-.29A2.25,2.25,0,0,0,449.4,552.78Zm9.1,4.67,3,3,17.58-17.58-3-3Zm-61.61-3.67a2,2,0,0,0-1.44.6,2.08,2.08,0,0,0-.59,1.46,2,2,0,0,0,2,2h0a2,2,0,0,0,0-4.06Zm48.67-9.26,11.12,11.14.29-.26.07-.06a1,1,0,0,0,.15-.14l3.33-3.32,16.23-16.24a2.23,2.23,0,0,0,.09-3.22,2.15,2.15,0,0,0-1.54-.63,2.4,2.4,0,0,0-1.73.75l-6.41,6.4-9.46,9.46a1.24,1.24,0,0,1-2,0c-1.81-1.8-3.94-3.93-6-6a4.93,4.93,0,0,1-.42-.49l-.19-.24-.29-.35Zm-20.21-10.61L445,553.54l.25-.53a4.29,4.29,0,0,1,2.21-2.17l.55-.24-19.67-19.69Zm-28.46,17.47a4.6,4.6,0,0,1,1.48.25l.54.18v-38.4c0-.19,0-.4,0-.61a3.7,3.7,0,0,0-.14-1.69,3.5,3.5,0,0,0-1.08-1.28l-.46-.43-1.11-1.12L394.89,507v44.8l.54-.17A4.48,4.48,0,0,1,396.89,551.38Zm21-38a10.11,10.11,0,0,0-10.08,10.14,10.11,10.11,0,0,0,10.12,10.06h0a10.1,10.1,0,0,0-.06-20.2Zm7.47-.33,3,3,7.14-7.15-3-3ZM388.4,492v1.23c0,1,0,2.12,0,3.17a1.63,1.63,0,0,0,.53,1.29L403,511.73l3.88,3.88.29.27a.69.69,0,0,0,.13.11l.47-.39,0,.19,2.72-2.75L388.4,491Z" transform="translate(-362.1 -462.81)"/><path class="cls-2" d="M417.84,527.91a4.43,4.43,0,0,1,.06-8.85H418a4.43,4.43,0,0,1-.06,8.85Zm.05-6.44a2,2,0,0,0-1.43.6,1.93,1.93,0,0,0-.59,1.43,2,2,0,0,0,2,2,2,2,0,0,0,1.43-.59,2,2,0,0,0-1.44-3.45Z" transform="translate(-362.1 -462.81)"/></svg>