<svg id="Camada_1" data-name="Camada 1" xmlns="http://www.w3.org/2000/svg" viewBox="0 0 144.22 116.36"><defs><style>.cls-1{fill:#fff;}</style></defs><path class="cls-1" d="M565,268.92,501.59,305.5a16.44,16.44,0,0,1-10.07,0l-63.36-36.58a7.42,7.42,0,1,1,7.42-12.85l61,35.2,61-35.2A7.42,7.42,0,1,1,565,268.92Z" transform="translate(-424.45 -255.07)"/><path class="cls-1" d="M565,333.92,501.59,370.5a16.44,16.44,0,0,1-10.07,0l-63.36-36.58a7.42,7.42,0,1,1,7.42-12.85l61,35.2,61-35.2A7.42,7.42,0,1,1,565,333.92Z" transform="translate(-424.45 -255.07)"/></svg>