<svg id="Camada_1" data-name="Camada 1" xmlns="http://www.w3.org/2000/svg" viewBox="0 0 80.81 80.8"><defs><style>.cls-1{fill:#fff;}</style></defs><path class="cls-1" d="M306.51,356.63c1.59-4.4,3.18-9.07,4.87-14.28.32-1,.69-2,1.07-2.92a3.94,3.94,0,0,0-.27-3.61,38.33,38.33,0,0,1-4.57-12,40.55,40.55,0,0,1-.05-15.49A38.07,38.07,0,0,1,314.2,293a40.77,40.77,0,0,1,23.71-15.84,41.71,41.71,0,0,1,9-1c1.09,0,2.18.05,3.28.14a39.79,39.79,0,0,1,22.67,9.13,41.26,41.26,0,0,1,7.05,7.63,38.62,38.62,0,0,1,5.55,11.23,39.49,39.49,0,0,1-4.05,32.39,38,38,0,0,1-6.92,8.45,40.1,40.1,0,0,1-11.57,7.49,42.1,42.1,0,0,1-11.05,3,32.94,32.94,0,0,1-4.33.26c-1.21,0-2.42-.05-3.64-.14a39.4,39.4,0,0,1-10.41-2.17,34,34,0,0,1-5.08-2.21,4.05,4.05,0,0,0-2-.52A4.39,4.39,0,0,0,325,351l-15.89,5.08-2.73.87Zm20.64-8.88a37.17,37.17,0,0,0,19.53,5.69,37.63,37.63,0,0,0,6.39-.56c12.67-2.16,22.06-9.13,27.9-20.71A36.18,36.18,0,0,0,383.86,308a37.72,37.72,0,0,0-29.12-28.66,38.65,38.65,0,0,0-7.79-.8,37.86,37.86,0,0,0-33.37,20.15,35.65,35.65,0,0,0-4.09,13.75A36.63,36.63,0,0,0,315.87,337c-1.06,3.05-2.06,6-3.09,9l-2.3,6.81s4.66-1.27,4.83-1.33l2.8-.88c3-.94,6-1.88,8.93-2.85Z" transform="translate(-306.4 -276.12)"/><path class="cls-1" d="M358.38,333.56a8.85,8.85,0,0,1-2.61-.4c-5-1.51-10.19-3.4-14.46-7A48.29,48.29,0,0,1,333,317a28.7,28.7,0,0,1-3.37-5.55,13,13,0,0,1-1.12-4.91,9.26,9.26,0,0,1,2.91-6.92,3.36,3.36,0,0,1,2.6-.84c.27,0,.53,0,.8,0q1.83,4.21,3.59,8.47l-.32.52a16.82,16.82,0,0,1-1.63,2c-1.86,2-2,3.26-.62,5.51A30.41,30.41,0,0,0,351,328a4.26,4.26,0,0,0,1.57.31,3.71,3.71,0,0,0,3-1.52c.46-.58.93-1.15,1.4-1.72s1.1-1.34,1.63-2c2.22.94,4.53,2.09,6.76,3.21l1.11.55a6.05,6.05,0,0,1-4,5.78A9.64,9.64,0,0,1,358.38,333.56Z" transform="translate(-306.4 -276.12)"/></svg>