<svg id="Camada_1" data-name="Camada 1" xmlns="http://www.w3.org/2000/svg" viewBox="0 0 280.77 280.77"><defs><style>.cls-1{fill:#fff;}</style></defs><path class="cls-1" d="M573.74,540l99.65-99.65a23.86,23.86,0,0,0-33.74-33.74L540,506.26l-99.65-99.65a23.85,23.85,0,0,0-33.74,0h0a23.85,23.85,0,0,0,0,33.74L506.26,540l-99.65,99.65a23.85,23.85,0,0,0,0,33.74h0a23.85,23.85,0,0,0,33.74,0L540,573.74l99.65,99.65a23.85,23.85,0,0,0,33.74,0h0a23.85,23.85,0,0,0,0-33.74Z" transform="translate(-399.62 -399.62)"/></svg>